<mxfile host="app.diagrams.net" modified="2023-11-29T21:31:40.402Z" agent="Mozilla/5.0 (Macintosh; Intel Mac OS X 10_15_7) AppleWebKit/537.36 (KHTML, like Gecko) Chrome/117.0.0.0 Safari/537.36" etag="Ftn1_669LX8oniCYD7hd" version="22.1.4" type="github">
  <diagram name="P치gina-1" id="xMgBzxyutiZ266SRtvwA">
    <mxGraphModel dx="1658" dy="750" grid="0" gridSize="10" guides="1" tooltips="1" connect="1" arrows="1" fold="1" page="0" pageScale="1" pageWidth="827" pageHeight="1169" math="0" shadow="0">
      <root>
        <mxCell id="0" />
        <mxCell id="1" parent="0" />
        <mxCell id="CEt6DoqJnd2gHfAl0Shl-15" value="Availability zone. sa-east-1a&amp;nbsp;" style="sketch=0;outlineConnect=0;gradientColor=none;html=1;whiteSpace=wrap;fontSize=12;fontStyle=0;shape=mxgraph.aws4.group;grIcon=mxgraph.aws4.group_availability_zone;strokeColor=#545B64;fillColor=none;verticalAlign=top;align=left;spacingLeft=30;fontColor=#545B64;dashed=1;" vertex="1" parent="1">
          <mxGeometry x="291" y="185" width="206" height="627" as="geometry" />
        </mxCell>
        <mxCell id="oZVBcTcADWWExq_XPIt7-11" value="Public subnet" style="points=[[0,0],[0.25,0],[0.5,0],[0.75,0],[1,0],[1,0.25],[1,0.5],[1,0.75],[1,1],[0.75,1],[0.5,1],[0.25,1],[0,1],[0,0.75],[0,0.5],[0,0.25]];outlineConnect=0;gradientColor=none;html=1;whiteSpace=wrap;fontSize=12;fontStyle=0;container=1;pointerEvents=0;collapsible=0;recursiveResize=0;shape=mxgraph.aws4.group;grIcon=mxgraph.aws4.group_security_group;grStroke=0;strokeColor=#7AA116;fillColor=#F2F6E8;verticalAlign=top;align=left;spacingLeft=30;fontColor=#248814;dashed=0;" parent="1" vertex="1">
          <mxGeometry x="324" y="258" width="161" height="197" as="geometry" />
        </mxCell>
        <mxCell id="oZVBcTcADWWExq_XPIt7-1" value="Security group" style="fillColor=none;strokeColor=#DD3522;verticalAlign=top;fontStyle=0;fontColor=#DD3522;whiteSpace=wrap;html=1;" parent="oZVBcTcADWWExq_XPIt7-11" vertex="1">
          <mxGeometry x="14" y="51" width="130" height="130" as="geometry" />
        </mxCell>
        <mxCell id="UleU-2GEnRefbWiP8ISX-1" value="&lt;b&gt;EC2&lt;/b&gt;" style="sketch=0;points=[[0,0,0],[0.25,0,0],[0.5,0,0],[0.75,0,0],[1,0,0],[0,1,0],[0.25,1,0],[0.5,1,0],[0.75,1,0],[1,1,0],[0,0.25,0],[0,0.5,0],[0,0.75,0],[1,0.25,0],[1,0.5,0],[1,0.75,0]];outlineConnect=0;fontColor=#232F3E;fillColor=#ED7100;strokeColor=#ffffff;dashed=0;verticalLabelPosition=bottom;verticalAlign=top;align=center;html=1;fontSize=12;fontStyle=0;aspect=fixed;shape=mxgraph.aws4.resourceIcon;resIcon=mxgraph.aws4.ec2;" parent="oZVBcTcADWWExq_XPIt7-11" vertex="1">
          <mxGeometry x="42.5" y="89.5" width="63" height="63" as="geometry" />
        </mxCell>
        <mxCell id="oZVBcTcADWWExq_XPIt7-7" value="VPC" style="points=[[0,0],[0.25,0],[0.5,0],[0.75,0],[1,0],[1,0.25],[1,0.5],[1,0.75],[1,1],[0.75,1],[0.5,1],[0.25,1],[0,1],[0,0.75],[0,0.5],[0,0.25]];outlineConnect=0;gradientColor=none;html=1;whiteSpace=wrap;fontSize=12;fontStyle=0;container=1;pointerEvents=0;collapsible=0;recursiveResize=0;shape=mxgraph.aws4.group;grIcon=mxgraph.aws4.group_vpc2;strokeColor=#8C4FFF;fillColor=none;verticalAlign=top;align=left;spacingLeft=30;fontColor=#AAB7B8;dashed=0;" parent="1" vertex="1">
          <mxGeometry x="192" y="217" width="808" height="445" as="geometry" />
        </mxCell>
        <mxCell id="oZVBcTcADWWExq_XPIt7-10" value="Region sa-east-1" style="points=[[0,0],[0.25,0],[0.5,0],[0.75,0],[1,0],[1,0.25],[1,0.5],[1,0.75],[1,1],[0.75,1],[0.5,1],[0.25,1],[0,1],[0,0.75],[0,0.5],[0,0.25]];outlineConnect=0;gradientColor=none;html=1;whiteSpace=wrap;fontSize=12;fontStyle=0;container=1;pointerEvents=0;collapsible=0;recursiveResize=0;shape=mxgraph.aws4.group;grIcon=mxgraph.aws4.group_region;strokeColor=#00A4A6;fillColor=none;verticalAlign=top;align=left;spacingLeft=30;fontColor=#147EBA;dashed=1;" parent="1" vertex="1">
          <mxGeometry x="165" y="172.5" width="865" height="663.5" as="geometry" />
        </mxCell>
        <mxCell id="CEt6DoqJnd2gHfAl0Shl-10" style="edgeStyle=orthogonalEdgeStyle;rounded=0;orthogonalLoop=1;jettySize=auto;html=1;" edge="1" parent="1" source="oZVBcTcADWWExq_XPIt7-2" target="CEt6DoqJnd2gHfAl0Shl-4">
          <mxGeometry relative="1" as="geometry" />
        </mxCell>
        <mxCell id="oZVBcTcADWWExq_XPIt7-2" value="Usu치rio" style="shape=umlActor;verticalLabelPosition=bottom;verticalAlign=top;html=1;outlineConnect=0;" parent="1" vertex="1">
          <mxGeometry x="51" y="266" width="30" height="60" as="geometry" />
        </mxCell>
        <mxCell id="CEt6DoqJnd2gHfAl0Shl-6" style="edgeStyle=orthogonalEdgeStyle;rounded=0;orthogonalLoop=1;jettySize=auto;html=1;" edge="1" parent="1" source="CEt6DoqJnd2gHfAl0Shl-4" target="CEt6DoqJnd2gHfAl0Shl-3">
          <mxGeometry relative="1" as="geometry">
            <Array as="points">
              <mxPoint x="269" y="296" />
              <mxPoint x="269" y="372" />
            </Array>
          </mxGeometry>
        </mxCell>
        <mxCell id="CEt6DoqJnd2gHfAl0Shl-4" value="&amp;nbsp; &amp;nbsp; &amp;nbsp; &amp;nbsp; &amp;nbsp; &amp;nbsp; &amp;nbsp; &amp;nbsp; &amp;nbsp; Internet&amp;nbsp;&amp;nbsp;&lt;br&gt;&amp;nbsp; &amp;nbsp; &amp;nbsp; &amp;nbsp; &amp;nbsp; &amp;nbsp; &amp;nbsp; &amp;nbsp; &amp;nbsp;Gateway" style="sketch=0;outlineConnect=0;fontColor=#232F3E;gradientColor=none;fillColor=#8C4FFF;strokeColor=none;dashed=0;verticalLabelPosition=bottom;verticalAlign=top;align=center;html=1;fontSize=12;fontStyle=0;aspect=fixed;pointerEvents=1;shape=mxgraph.aws4.internet_gateway;fillStyle=solid;" vertex="1" parent="1">
          <mxGeometry x="173" y="276" width="40" height="40" as="geometry" />
        </mxCell>
        <mxCell id="CEt6DoqJnd2gHfAl0Shl-8" value="AWS Account" style="points=[[0,0],[0.25,0],[0.5,0],[0.75,0],[1,0],[1,0.25],[1,0.5],[1,0.75],[1,1],[0.75,1],[0.5,1],[0.25,1],[0,1],[0,0.75],[0,0.5],[0,0.25]];outlineConnect=0;gradientColor=none;html=1;whiteSpace=wrap;fontSize=12;fontStyle=0;container=1;pointerEvents=0;collapsible=0;recursiveResize=0;shape=mxgraph.aws4.group;grIcon=mxgraph.aws4.group_account;strokeColor=#CD2264;fillColor=none;verticalAlign=top;align=left;spacingLeft=30;fontColor=#CD2264;dashed=0;" vertex="1" parent="1">
          <mxGeometry x="104" y="144" width="982" height="715" as="geometry" />
        </mxCell>
        <mxCell id="oZVBcTcADWWExq_XPIt7-12" value="Private subnet" style="points=[[0,0],[0.25,0],[0.5,0],[0.75,0],[1,0],[1,0.25],[1,0.5],[1,0.75],[1,1],[0.75,1],[0.5,1],[0.25,1],[0,1],[0,0.75],[0,0.5],[0,0.25]];outlineConnect=0;gradientColor=none;html=1;whiteSpace=wrap;fontSize=12;fontStyle=0;container=1;pointerEvents=0;collapsible=0;recursiveResize=0;shape=mxgraph.aws4.group;grIcon=mxgraph.aws4.group_security_group;grStroke=0;strokeColor=#00A4A6;fillColor=#E6F6F7;verticalAlign=top;align=left;spacingLeft=30;fontColor=#147EBA;dashed=0;" parent="CEt6DoqJnd2gHfAl0Shl-8" vertex="1">
          <mxGeometry x="219" y="318" width="161" height="192.5" as="geometry" />
        </mxCell>
        <mxCell id="oZVBcTcADWWExq_XPIt7-21" value="Security group" style="fillColor=none;strokeColor=#DD3522;verticalAlign=top;fontStyle=0;fontColor=#DD3522;whiteSpace=wrap;html=1;" parent="oZVBcTcADWWExq_XPIt7-12" vertex="1">
          <mxGeometry x="17" y="48" width="136" height="129.5" as="geometry" />
        </mxCell>
        <mxCell id="oZVBcTcADWWExq_XPIt7-17" value="&lt;b&gt;RDS Inst칙ncia Prim치ria&amp;nbsp;&amp;nbsp;&lt;br&gt;&lt;/b&gt;" style="sketch=0;points=[[0,0,0],[0.25,0,0],[0.5,0,0],[0.75,0,0],[1,0,0],[0,1,0],[0.25,1,0],[0.5,1,0],[0.75,1,0],[1,1,0],[0,0.25,0],[0,0.5,0],[0,0.75,0],[1,0.25,0],[1,0.5,0],[1,0.75,0]];outlineConnect=0;fontColor=#232F3E;fillColor=#C925D1;strokeColor=#ffffff;dashed=0;verticalLabelPosition=bottom;verticalAlign=top;align=center;html=1;fontSize=12;fontStyle=0;aspect=fixed;shape=mxgraph.aws4.resourceIcon;resIcon=mxgraph.aws4.rds;" parent="oZVBcTcADWWExq_XPIt7-12" vertex="1">
          <mxGeometry x="49" y="73.5" width="78" height="78" as="geometry" />
        </mxCell>
        <mxCell id="CEt6DoqJnd2gHfAl0Shl-17" value="Availability zone.&amp;nbsp; sa-east-1b" style="sketch=0;outlineConnect=0;gradientColor=none;html=1;whiteSpace=wrap;fontSize=12;fontStyle=0;shape=mxgraph.aws4.group;grIcon=mxgraph.aws4.group_availability_zone;strokeColor=#545B64;fillColor=none;verticalAlign=top;align=left;spacingLeft=30;fontColor=#545B64;dashed=1;" vertex="1" parent="CEt6DoqJnd2gHfAl0Shl-8">
          <mxGeometry x="401" y="41" width="210" height="625" as="geometry" />
        </mxCell>
        <mxCell id="CEt6DoqJnd2gHfAl0Shl-18" value="Availability zone. sa-east-1c" style="sketch=0;outlineConnect=0;gradientColor=none;html=1;whiteSpace=wrap;fontSize=12;fontStyle=0;shape=mxgraph.aws4.group;grIcon=mxgraph.aws4.group_availability_zone;strokeColor=#545B64;fillColor=none;verticalAlign=top;align=left;spacingLeft=30;fontColor=#545B64;dashed=1;" vertex="1" parent="CEt6DoqJnd2gHfAl0Shl-8">
          <mxGeometry x="620" y="41" width="219" height="625" as="geometry" />
        </mxCell>
        <mxCell id="CEt6DoqJnd2gHfAl0Shl-21" value="Public subnet" style="points=[[0,0],[0.25,0],[0.5,0],[0.75,0],[1,0],[1,0.25],[1,0.5],[1,0.75],[1,1],[0.75,1],[0.5,1],[0.25,1],[0,1],[0,0.75],[0,0.5],[0,0.25]];outlineConnect=0;gradientColor=none;html=1;whiteSpace=wrap;fontSize=12;fontStyle=0;container=1;pointerEvents=0;collapsible=0;recursiveResize=0;shape=mxgraph.aws4.group;grIcon=mxgraph.aws4.group_security_group;grStroke=0;strokeColor=#7AA116;fillColor=#F2F6E8;verticalAlign=top;align=left;spacingLeft=30;fontColor=#248814;dashed=0;" vertex="1" parent="CEt6DoqJnd2gHfAl0Shl-8">
          <mxGeometry x="421" y="113" width="161" height="197" as="geometry" />
        </mxCell>
        <mxCell id="CEt6DoqJnd2gHfAl0Shl-22" value="Security group" style="fillColor=none;strokeColor=#DD3522;verticalAlign=top;fontStyle=0;fontColor=#DD3522;whiteSpace=wrap;html=1;" vertex="1" parent="CEt6DoqJnd2gHfAl0Shl-21">
          <mxGeometry x="14" y="51" width="130" height="130" as="geometry" />
        </mxCell>
        <mxCell id="CEt6DoqJnd2gHfAl0Shl-23" value="&lt;b&gt;EC2&lt;/b&gt;" style="sketch=0;points=[[0,0,0],[0.25,0,0],[0.5,0,0],[0.75,0,0],[1,0,0],[0,1,0],[0.25,1,0],[0.5,1,0],[0.75,1,0],[1,1,0],[0,0.25,0],[0,0.5,0],[0,0.75,0],[1,0.25,0],[1,0.5,0],[1,0.75,0]];outlineConnect=0;fontColor=#232F3E;fillColor=#ED7100;strokeColor=#ffffff;dashed=0;verticalLabelPosition=bottom;verticalAlign=top;align=center;html=1;fontSize=12;fontStyle=0;aspect=fixed;shape=mxgraph.aws4.resourceIcon;resIcon=mxgraph.aws4.ec2;" vertex="1" parent="CEt6DoqJnd2gHfAl0Shl-21">
          <mxGeometry x="42.5" y="89.5" width="63" height="63" as="geometry" />
        </mxCell>
        <mxCell id="CEt6DoqJnd2gHfAl0Shl-30" value="Public subnet" style="points=[[0,0],[0.25,0],[0.5,0],[0.75,0],[1,0],[1,0.25],[1,0.5],[1,0.75],[1,1],[0.75,1],[0.5,1],[0.25,1],[0,1],[0,0.75],[0,0.5],[0,0.25]];outlineConnect=0;gradientColor=none;html=1;whiteSpace=wrap;fontSize=12;fontStyle=0;container=1;pointerEvents=0;collapsible=0;recursiveResize=0;shape=mxgraph.aws4.group;grIcon=mxgraph.aws4.group_security_group;grStroke=0;strokeColor=#7AA116;fillColor=#F2F6E8;verticalAlign=top;align=left;spacingLeft=30;fontColor=#248814;dashed=0;" vertex="1" parent="CEt6DoqJnd2gHfAl0Shl-8">
          <mxGeometry x="656" y="113" width="161" height="197" as="geometry" />
        </mxCell>
        <mxCell id="CEt6DoqJnd2gHfAl0Shl-31" value="Security group" style="fillColor=none;strokeColor=#DD3522;verticalAlign=top;fontStyle=0;fontColor=#DD3522;whiteSpace=wrap;html=1;" vertex="1" parent="CEt6DoqJnd2gHfAl0Shl-30">
          <mxGeometry x="14" y="51" width="130" height="130" as="geometry" />
        </mxCell>
        <mxCell id="CEt6DoqJnd2gHfAl0Shl-32" value="&lt;b&gt;EC2&lt;/b&gt;" style="sketch=0;points=[[0,0,0],[0.25,0,0],[0.5,0,0],[0.75,0,0],[1,0,0],[0,1,0],[0.25,1,0],[0.5,1,0],[0.75,1,0],[1,1,0],[0,0.25,0],[0,0.5,0],[0,0.75,0],[1,0.25,0],[1,0.5,0],[1,0.75,0]];outlineConnect=0;fontColor=#232F3E;fillColor=#ED7100;strokeColor=#ffffff;dashed=0;verticalLabelPosition=bottom;verticalAlign=top;align=center;html=1;fontSize=12;fontStyle=0;aspect=fixed;shape=mxgraph.aws4.resourceIcon;resIcon=mxgraph.aws4.ec2;" vertex="1" parent="CEt6DoqJnd2gHfAl0Shl-30">
          <mxGeometry x="42.5" y="89.5" width="63" height="63" as="geometry" />
        </mxCell>
        <mxCell id="CEt6DoqJnd2gHfAl0Shl-33" value="Private subnet" style="points=[[0,0],[0.25,0],[0.5,0],[0.75,0],[1,0],[1,0.25],[1,0.5],[1,0.75],[1,1],[0.75,1],[0.5,1],[0.25,1],[0,1],[0,0.75],[0,0.5],[0,0.25]];outlineConnect=0;gradientColor=none;html=1;whiteSpace=wrap;fontSize=12;fontStyle=0;container=1;pointerEvents=0;collapsible=0;recursiveResize=0;shape=mxgraph.aws4.group;grIcon=mxgraph.aws4.group_security_group;grStroke=0;strokeColor=#00A4A6;fillColor=#E6F6F7;verticalAlign=top;align=left;spacingLeft=30;fontColor=#147EBA;dashed=0;" vertex="1" parent="CEt6DoqJnd2gHfAl0Shl-8">
          <mxGeometry x="421" y="318" width="161" height="192.5" as="geometry" />
        </mxCell>
        <mxCell id="CEt6DoqJnd2gHfAl0Shl-34" value="Security group" style="fillColor=none;strokeColor=#DD3522;verticalAlign=top;fontStyle=0;fontColor=#DD3522;whiteSpace=wrap;html=1;" vertex="1" parent="CEt6DoqJnd2gHfAl0Shl-33">
          <mxGeometry x="23" y="47.5" width="130" height="130" as="geometry" />
        </mxCell>
        <mxCell id="CEt6DoqJnd2gHfAl0Shl-35" value="&lt;b&gt;RDS em Espera&lt;/b&gt;" style="sketch=0;points=[[0,0,0],[0.25,0,0],[0.5,0,0],[0.75,0,0],[1,0,0],[0,1,0],[0.25,1,0],[0.5,1,0],[0.75,1,0],[1,1,0],[0,0.25,0],[0,0.5,0],[0,0.75,0],[1,0.25,0],[1,0.5,0],[1,0.75,0]];outlineConnect=0;fontColor=#232F3E;fillColor=#C925D1;strokeColor=#ffffff;dashed=0;verticalLabelPosition=bottom;verticalAlign=top;align=center;html=1;fontSize=12;fontStyle=0;aspect=fixed;shape=mxgraph.aws4.resourceIcon;resIcon=mxgraph.aws4.rds;" vertex="1" parent="CEt6DoqJnd2gHfAl0Shl-33">
          <mxGeometry x="49" y="73.5" width="78" height="78" as="geometry" />
        </mxCell>
        <mxCell id="CEt6DoqJnd2gHfAl0Shl-36" value="Private subnet" style="points=[[0,0],[0.25,0],[0.5,0],[0.75,0],[1,0],[1,0.25],[1,0.5],[1,0.75],[1,1],[0.75,1],[0.5,1],[0.25,1],[0,1],[0,0.75],[0,0.5],[0,0.25]];outlineConnect=0;gradientColor=none;html=1;whiteSpace=wrap;fontSize=12;fontStyle=0;container=1;pointerEvents=0;collapsible=0;recursiveResize=0;shape=mxgraph.aws4.group;grIcon=mxgraph.aws4.group_security_group;grStroke=0;strokeColor=#00A4A6;fillColor=#E6F6F7;verticalAlign=top;align=left;spacingLeft=30;fontColor=#147EBA;dashed=0;" vertex="1" parent="CEt6DoqJnd2gHfAl0Shl-8">
          <mxGeometry x="656" y="318" width="161" height="192.5" as="geometry" />
        </mxCell>
        <mxCell id="CEt6DoqJnd2gHfAl0Shl-37" value="Security group" style="fillColor=none;strokeColor=#DD3522;verticalAlign=top;fontStyle=0;fontColor=#DD3522;whiteSpace=wrap;html=1;" vertex="1" parent="CEt6DoqJnd2gHfAl0Shl-36">
          <mxGeometry x="23" y="47.5" width="130" height="130" as="geometry" />
        </mxCell>
        <mxCell id="CEt6DoqJnd2gHfAl0Shl-38" value="&lt;b&gt;RDS em Espera&lt;/b&gt;" style="sketch=0;points=[[0,0,0],[0.25,0,0],[0.5,0,0],[0.75,0,0],[1,0,0],[0,1,0],[0.25,1,0],[0.5,1,0],[0.75,1,0],[1,1,0],[0,0.25,0],[0,0.5,0],[0,0.75,0],[1,0.25,0],[1,0.5,0],[1,0.75,0]];outlineConnect=0;fontColor=#232F3E;fillColor=#C925D1;strokeColor=#ffffff;dashed=0;verticalLabelPosition=bottom;verticalAlign=top;align=center;html=1;fontSize=12;fontStyle=0;aspect=fixed;shape=mxgraph.aws4.resourceIcon;resIcon=mxgraph.aws4.rds;" vertex="1" parent="CEt6DoqJnd2gHfAl0Shl-36">
          <mxGeometry x="49" y="73.5" width="78" height="78" as="geometry" />
        </mxCell>
        <mxCell id="CEt6DoqJnd2gHfAl0Shl-40" value="&lt;font style=&quot;font-size: 10px;&quot;&gt;NACL&lt;/font&gt;" style="sketch=0;outlineConnect=0;fontColor=#232F3E;gradientColor=none;fillColor=#8C4FFF;strokeColor=none;dashed=0;verticalLabelPosition=bottom;verticalAlign=top;align=center;html=1;fontSize=12;fontStyle=0;aspect=fixed;pointerEvents=1;shape=mxgraph.aws4.network_access_control_list;" vertex="1" parent="CEt6DoqJnd2gHfAl0Shl-8">
          <mxGeometry x="636" y="215" width="30" height="30" as="geometry" />
        </mxCell>
        <mxCell id="CEt6DoqJnd2gHfAl0Shl-3" value="&lt;font style=&quot;font-size: 10px;&quot;&gt;NACL&lt;/font&gt;" style="sketch=0;outlineConnect=0;fontColor=#232F3E;gradientColor=none;fillColor=#8C4FFF;strokeColor=none;dashed=0;verticalLabelPosition=bottom;verticalAlign=top;align=center;html=1;fontSize=12;fontStyle=0;aspect=fixed;pointerEvents=1;shape=mxgraph.aws4.network_access_control_list;" vertex="1" parent="CEt6DoqJnd2gHfAl0Shl-8">
          <mxGeometry x="199" y="215" width="30" height="30" as="geometry" />
        </mxCell>
        <mxCell id="CEt6DoqJnd2gHfAl0Shl-49" value="&lt;b&gt;S3&lt;/b&gt;" style="sketch=0;points=[[0,0,0],[0.25,0,0],[0.5,0,0],[0.75,0,0],[1,0,0],[0,1,0],[0.25,1,0],[0.5,1,0],[0.75,1,0],[1,1,0],[0,0.25,0],[0,0.5,0],[0,0.75,0],[1,0.25,0],[1,0.5,0],[1,0.75,0]];outlineConnect=0;fontColor=#232F3E;fillColor=#7AA116;strokeColor=#ffffff;dashed=0;verticalLabelPosition=bottom;verticalAlign=top;align=center;html=1;fontSize=12;fontStyle=0;aspect=fixed;shape=mxgraph.aws4.resourceIcon;resIcon=mxgraph.aws4.s3;" vertex="1" parent="CEt6DoqJnd2gHfAl0Shl-8">
          <mxGeometry x="260.5" y="541" width="78" height="78" as="geometry" />
        </mxCell>
        <mxCell id="CEt6DoqJnd2gHfAl0Shl-94" value="&lt;b&gt;S3&lt;/b&gt;" style="sketch=0;points=[[0,0,0],[0.25,0,0],[0.5,0,0],[0.75,0,0],[1,0,0],[0,1,0],[0.25,1,0],[0.5,1,0],[0.75,1,0],[1,1,0],[0,0.25,0],[0,0.5,0],[0,0.75,0],[1,0.25,0],[1,0.5,0],[1,0.75,0]];outlineConnect=0;fontColor=#232F3E;fillColor=#7AA116;strokeColor=#ffffff;dashed=0;verticalLabelPosition=bottom;verticalAlign=top;align=center;html=1;fontSize=12;fontStyle=0;aspect=fixed;shape=mxgraph.aws4.resourceIcon;resIcon=mxgraph.aws4.s3;" vertex="1" parent="CEt6DoqJnd2gHfAl0Shl-8">
          <mxGeometry x="467" y="541" width="78" height="78" as="geometry" />
        </mxCell>
        <mxCell id="CEt6DoqJnd2gHfAl0Shl-95" value="&lt;b&gt;S3&lt;/b&gt;" style="sketch=0;points=[[0,0,0],[0.25,0,0],[0.5,0,0],[0.75,0,0],[1,0,0],[0,1,0],[0.25,1,0],[0.5,1,0],[0.75,1,0],[1,1,0],[0,0.25,0],[0,0.5,0],[0,0.75,0],[1,0.25,0],[1,0.5,0],[1,0.75,0]];outlineConnect=0;fontColor=#232F3E;fillColor=#7AA116;strokeColor=#ffffff;dashed=0;verticalLabelPosition=bottom;verticalAlign=top;align=center;html=1;fontSize=12;fontStyle=0;aspect=fixed;shape=mxgraph.aws4.resourceIcon;resIcon=mxgraph.aws4.s3;" vertex="1" parent="CEt6DoqJnd2gHfAl0Shl-8">
          <mxGeometry x="697.5" y="541" width="78" height="78" as="geometry" />
        </mxCell>
        <mxCell id="CEt6DoqJnd2gHfAl0Shl-39" value="&lt;font style=&quot;font-size: 10px;&quot;&gt;NACL&lt;/font&gt;" style="sketch=0;outlineConnect=0;fontColor=#232F3E;gradientColor=none;fillColor=#8C4FFF;strokeColor=none;dashed=0;verticalLabelPosition=bottom;verticalAlign=top;align=center;html=1;fontSize=12;fontStyle=0;aspect=fixed;pointerEvents=1;shape=mxgraph.aws4.network_access_control_list;" vertex="1" parent="CEt6DoqJnd2gHfAl0Shl-8">
          <mxGeometry x="404" y="215" width="30" height="30" as="geometry" />
        </mxCell>
      </root>
    </mxGraphModel>
  </diagram>
</mxfile>
